<svg xmlns="http://www.w3.org/2000/svg" xmlns:svg="http://www.w3.org/2000/svg" id="svg16" version="1.1" viewBox="0 0 565.15 568"><metadata id="metadata20"/><defs id="defs4"><style id="style2">.cls-1{fill:red}</style></defs><title id="title6">LogoSponsorBlocker2</title><path id="path8" d="m 282.58,568 a 65,65 0 0 1 -34.14,-9.66 C 95.41,463.94 2.54,300.46 0,121 a 64.91,64.91 0 0 1 34,-58.09 522.56,522.56 0 0 1 497.16,0 64.91,64.91 0 0 1 34,58.12 c -2.53,179.43 -95.4,342.91 -248.42,437.3 A 65,65 0 0 1 282.58,568 Z m 0,-548.31 A 502.24,502.24 0 0 0 43.4,80.22 45.27,45.27 0 0 0 19.7,120.75 c 2.44,172.67 91.81,330 239.07,420.83 a 46.19,46.19 0 0 0 47.61,0 C 453.64,450.73 543,293.42 545.45,120.75 A 45.26,45.26 0 0 0 521.75,80.21 502.26,502.26 0 0 0 282.58,19.69 Z" class="cls-1" style="fill:#fff"/><path style="fill:#fff" id="path10" d="M 284.70508 42.693359 A 479.9 479.9 0 0 0 54.369141 100.41992 A 22.53 22.53 0 0 0 42.669922 120.41992 C 45.069922 290.25992 135.67008 438.63977 270.83008 522.00977 A 22.48 22.48 0 0 0 294.32031 522.00977 C 429.48031 438.63977 520.08047 290.25992 522.48047 120.41992 A 22.53 22.53 0 0 0 510.7793 100.41992 A 479.9 479.9 0 0 0 284.70508 42.693359 z M 188.7168 140.07227 L 312.64844 264.00586 L 188.7168 387.9375 L 159.5918 358.8125 L 254.19336 264.00586 L 159.5918 169.19727 L 188.7168 140.07227 z M 305.625 140.07227 L 429.55859 264.00586 L 305.625 387.9375 L 276.50195 358.8125 L 371.10352 264.00586 L 276.50195 169.19727 L 305.625 140.07227 z"/></svg>